<?xml version="1.0" encoding="UTF-8" standalone="no"?>
<svg
   xmlns:dc="http://purl.org/dc/elements/1.1/"
   xmlns:cc="http://creativecommons.org/ns#"
   xmlns:rdf="http://www.w3.org/1999/02/22-rdf-syntax-ns#"
   xmlns:svg="http://www.w3.org/2000/svg"
   xmlns="http://www.w3.org/2000/svg"
   viewBox="0 0 765 990"
   height="990"
   width="765"
   xml:space="preserve"
   version="1.1"
   id="svg2"><metadata
     id="metadata8"><rdf:RDF><cc:Work
         rdf:about=""><dc:format>image/svg+xml</dc:format><dc:type
           rdf:resource="http://purl.org/dc/dcmitype/StillImage" /></cc:Work></rdf:RDF></metadata><defs
     id="defs6"><clipPath
       id="clipPath18"
       clipPathUnits="userSpaceOnUse"><path
         style="clip-rule:evenodd"
         id="path20"
         d="M 9.12e-6,0 612.00001,0 l 0,792 -612.00000088,0 0,-792 z" /></clipPath><clipPath
       id="clipPath30"
       clipPathUnits="userSpaceOnUse"><path
         style="clip-rule:evenodd"
         id="path32"
         d="M 9.12e-6,0 612.00001,0 l 0,792 -612.00000088,0 0,-792 z" /></clipPath><clipPath
       id="clipPath42"
       clipPathUnits="userSpaceOnUse"><path
         style="clip-rule:evenodd"
         id="path44"
         d="M 9.12e-6,0 612.00001,0 l 0,792 -612.00000088,0 0,-792 z" /></clipPath><clipPath
       id="clipPath50"
       clipPathUnits="userSpaceOnUse"><path
         style="clip-rule:evenodd"
         id="path52"
         d="M 9.12e-6,0 612.00001,0 l 0,792 -612.00000088,0 0,-792 z" /></clipPath><clipPath
       id="clipPath62"
       clipPathUnits="userSpaceOnUse"><path
         style="clip-rule:evenodd"
         id="path64"
         d="M 9.12e-6,0 612.00001,0 l 0,792 -612.00000088,0 0,-792 z" /></clipPath><clipPath
       id="clipPath70"
       clipPathUnits="userSpaceOnUse"><path
         style="clip-rule:evenodd"
         id="path72"
         d="M 9.12e-6,0 612.00001,0 l 0,792 -612.00000088,0 0,-792 z" /></clipPath><clipPath
       id="clipPath82"
       clipPathUnits="userSpaceOnUse"><path
         style="clip-rule:evenodd"
         id="path84"
         d="M 9.12e-6,0 612.00001,0 l 0,792 -612.00000088,0 0,-792 z" /></clipPath><clipPath
       id="clipPath90"
       clipPathUnits="userSpaceOnUse"><path
         style="clip-rule:evenodd"
         id="path92"
         d="M 9.12e-6,0 612.00001,0 l 0,792 -612.00000088,0 0,-792 z" /></clipPath><clipPath
       id="clipPath102"
       clipPathUnits="userSpaceOnUse"><path
         style="clip-rule:evenodd"
         id="path104"
         d="M 9.12e-6,0 612.00001,0 l 0,792 -612.00000088,0 0,-792 z" /></clipPath></defs><g
     transform="matrix(1.25,0,0,-1.25,0,990)"
     id="g10"><path
       id="path12"
       style="fill:#000000;fill-opacity:1;fill-rule:evenodd;stroke:none"
       d="m 85.104,704.02 34.32,0 0,17.184 -34.32,0 0,-17.184 z" /><g
       id="g14"><g
         clip-path="url(#clipPath18)"
         id="g16"><text
           id="text22"
           style="font-variant:normal;font-weight:bold;font-size:14.03999996px;font-family:Calibri;-inkscape-font-specification:Calibri-Bold;writing-mode:lr-tb;fill:#ffffff;fill-opacity:1;fill-rule:nonzero;stroke:none"
           transform="matrix(1,0,0,-1,85.104,707.86)"><tspan
             id="tspan24"
             y="0"
             x="0 9.2399597 18.718599">NOD</tspan></text>
</g></g><g
       id="g26"><g
         clip-path="url(#clipPath30)"
         id="g28"><text
           id="text34"
           style="font-style:italic;font-variant:normal;font-weight:bold;font-size:14.03999996px;font-family:Calibri;-inkscape-font-specification:Calibri-BoldItalic;writing-mode:lr-tb;fill:#ffffff;fill-opacity:1;fill-rule:nonzero;stroke:none"
           transform="matrix(1,0,0,-1,112.7,707.86)"><tspan
             id="tspan36"
             y="0"
             x="0">E</tspan></text>
</g></g><g
       id="g38"><g
         clip-path="url(#clipPath42)"
         id="g40" /></g><g
       id="g46"><g
         clip-path="url(#clipPath50)"
         id="g48"><text
           id="text54"
           style="font-style:italic;font-variant:normal;font-weight:normal;font-size:20.04000092px;font-family:Arial;-inkscape-font-specification:Arial-ItalicMT;writing-mode:lr-tb;fill:#000000;fill-opacity:1;fill-rule:nonzero;stroke:none"
           transform="matrix(1,0,0,-1,85.104,685.54)"><tspan
             id="tspan56"
             y="0"
             x="0 13.36668 27.83556 42.24432 56.7132 62.284321 74.528763 87.895439 102.36432 114.48852 128.9574 143.50644">ARCHITECTURE</tspan></text>
</g></g><g
       id="g58"><g
         clip-path="url(#clipPath62)"
         id="g60" /></g><g
       id="g66"><g
         clip-path="url(#clipPath70)"
         id="g68"><text
           id="text74"
           style="font-variant:normal;font-weight:normal;font-size:20.04000092px;font-family:ArialMT;-inkscape-font-specification:ArialMT;writing-mode:lr-tb;fill:#000000;fill-opacity:1;fill-rule:nonzero;stroke:none"
           transform="matrix(1,0,0,-1,247.49,685.54)"><tspan
             id="tspan76"
             y="0"
             x="0">+</tspan></text>
</g></g><g
       id="g78"><g
         clip-path="url(#clipPath82)"
         id="g80" /></g><g
       id="g86"><g
         clip-path="url(#clipPath90)"
         id="g88"><text
           id="text94"
           style="font-variant:normal;font-weight:bold;font-size:20.04000092px;font-family:Arial;-inkscape-font-specification:Arial-BoldMT;writing-mode:lr-tb;fill:#000000;fill-opacity:1;fill-rule:nonzero;stroke:none"
           transform="matrix(1,0,0,-1,264.77,685.54)"><tspan
             id="tspan96"
             y="0"
             x="0 13.20636 27.67524 43.266361 48.717239 63.186119 76.552803 89.919479">ENGINEER</tspan></text>
</g></g><g
       id="g98"><g
         clip-path="url(#clipPath102)"
         id="g100" /></g></g></svg>